<svg xmlns="http://www.w3.org/2000/svg" height="512px" viewBox="0 0 16 16" width="512px" class=""  xmlns:xlink="http://www.w3.org/1999/xlink"><rect id="svgEditorBackground" x="0" y="0" width="16" height="16" style="fill: none; stroke: none;"/><g><path d="m12 0h-1v9c0 1.10303-.896973 2-2 2h-9v1c0 .552734.447754 1 1 1h11c.552246 0 1-.447266 1-1v-11c0-.552246-.447754-1-1-1z" transform="translate(3 3)" data-original="#000000" class="active-path" data-old_color="#000000" fill="#4FBAC2"/><path d="M13,12v-11c0,-0.552246,-0.44775399999999976,-1,-1,-1h-8c-0.2651370000000002,0,-0.5195309999999997,0.10546900000000002,-0.7070309999999997,0.2929690000000001l-3.0000000000000004,3c-0.18750000000000017,0.1875,-0.29296900000000015,0.44189500000000015,-0.29296900000000015,0.7070309999999997v8c0,0.552734000000001,0.4477540000000001,1,1,1h11c0.5522460000000002,0,1,-0.44726599999999905,1,-1ZM4,3c0,0.5522460000000002,-0.4476930000000001,1,-1,1h-2l3,-3Z" data-original="#000000" class="active-path" data-old_color="#000000" fill="#4FBAC2"/></g> <text style="fill:black;font-family:Arial;font-size:20px;" x="3.016158103942871" y="5.429084300994873" id="e1_texte"></text><text style="fill: black; font-family: &quot;Courier New&quot;; text-anchor: middle; font-weight: bolder; font-size:1.26391px;" x="2.8150808811187744" y="6.061041355133057" id="e2_texte" transform="matrix(1 0 0 1 4.02154 0.172352)"><tspan x="2.8150808811187744" dy="1.25em"> Team 626 Keep</tspan></text></svg>